<?xml version="1.0" encoding="UTF-8"?>
<svg xmlns="http://www.w3.org/2000/svg" xmlns:xlink="http://www.w3.org/1999/xlink" width="375pt" height="374.999991pt" viewBox="0 0 375 374.999991" version="1.2">
<g id="surface1">
<path style=" stroke:none;fill-rule:nonzero;fill:rgb(100%,100%,100%);fill-opacity:1;" d="M 267.476562 128.859375 C 227.753906 128.859375 194.316406 164.371094 184.164062 176.347656 C 174.015625 164.371094 140.578125 128.859375 100.851562 128.859375 C 53.078125 128.859375 14.363281 151.871094 14.363281 180.253906 C 14.363281 208.644531 53.082031 231.65625 100.851562 231.65625 C 140.574219 231.65625 174.015625 196.140625 184.164062 184.164062 C 194.316406 196.140625 227.75 231.65625 267.476562 231.65625 C 315.25 231.65625 353.964844 208.644531 353.964844 180.253906 C 353.96875 151.871094 315.25 128.859375 267.476562 128.859375 Z M 110.761719 217.933594 C 68.464844 217.933594 34.183594 201.0625 34.183594 180.253906 C 34.183594 159.445312 68.464844 142.578125 110.761719 142.578125 C 153.0625 142.578125 180.988281 180.253906 180.988281 180.253906 C 180.988281 180.253906 153.0625 217.933594 110.761719 217.933594 Z M 257.570312 217.933594 C 215.273438 217.933594 187.347656 180.253906 187.347656 180.253906 C 187.347656 180.253906 215.273438 142.578125 257.570312 142.578125 C 299.871094 142.578125 334.152344 159.445312 334.152344 180.253906 C 334.148438 201.0625 299.871094 217.933594 257.570312 217.933594 Z M 257.570312 217.933594 "/>
</g>
</svg>
