<svg xmlns="http://www.w3.org/2000/svg" xmlns:xlink="http://www.w3.org/1999/xlink" id="Capa_1" x="0" y="0" version="1.1" viewBox="0 0 512 512" xml:space="preserve" style="enable-background:new 0 0 512 512"><polygon style="fill:#9abadb" points="332.663 473.644 332.663 413.596 235.984 393.58 256 473.644"/><g><polygon style="fill:#d1e8ff" points="179.337 473.644 256 473.644 256 393.58 179.337 413.596"/><polygon style="fill:#d1e8ff" points="512 323.524 235.984 303.508 256 413.596 512 413.596"/></g><polygon style="fill:#f5f5ff" points="0 323.524 0 413.596 256 413.596 256 303.508"/><polygon style="fill:#d1e8ff" points="377.699 458.644 256 458.644 245.992 473.644 256 488.644 377.699 488.644"/><rect style="fill:#f5f5ff" width="121.7" height="30" x="134.3" y="458.64"/><polygon style="fill:#294b6e" points="512 23.356 256 23.356 235.984 173.44 256 323.524 512 323.524"/><rect style="fill:#6283a3" width="256" height="300.17" y="23.356"/><polygon style="fill:#f5f5ff" points="178.828 252.914 99.354 173.44 178.828 93.966 200.041 115.179 141.78 173.44 200.041 231.701"/><g><polygon style="fill:#d1e8ff" points="333.172 252.914 311.959 231.701 370.22 173.44 311.959 115.179 333.172 93.966 412.646 173.44"/><rect style="fill:#d1e8ff" width="30" height="189.623" x="241" y="78.635" transform="matrix(-0.9808 -0.1951 0.1951 -0.9808 473.2431 393.505)"/></g></svg>